<?xml version="1.0" encoding="UTF-8" standalone="no"?>
<svg
   height="256"
   viewBox="0 0 16 16"
   width="256"
   version="1.1"
   id="svg7"
   xmlns="http://www.w3.org/2000/svg"
   xmlns:svg="http://www.w3.org/2000/svg">
  <defs
     id="defs7" />
  <g
     fill="#fc7f7f"
     id="g7">
    <path
       d="m 7.3064413,7.1957371 -3.2659438,-10e-8 -1.6329717,-2.8283904 1.632972,-2.8283902 3.2659438,2e-7 1.6329717,2.8283903 z"
       transform="matrix(0.61238042,0,0,0.53033698,4.525678,5.683835)"
       id="path1" />
    <path
       d="m 7.3064413,7.1957371 -3.2659438,-10e-8 -1.6329717,-2.8283904 1.632972,-2.8283902 3.2659438,2e-7 1.6329717,2.8283903 z"
       transform="matrix(0.61238042,0,0,0.53033698,8.525678,3.683835)"
       id="path2" />
    <path
       d="m 7.3064413,7.1957371 -3.2659438,-10e-8 -1.6329717,-2.8283904 1.632972,-2.8283902 3.2659438,2e-7 1.6329717,2.8283903 z"
       transform="matrix(0.61238042,0,0,0.53033698,8.525678,7.683835)"
       id="path3" />
    <path
       d="m 7.3064413,7.1957371 -3.2659438,-10e-8 -1.6329717,-2.8283904 1.632972,-2.8283902 3.2659438,2e-7 1.6329717,2.8283903 z"
       transform="matrix(0.61238042,0,0,0.53033698,4.525678,1.683835)"
       id="path4" />
    <path
       d="m 7.3064413,7.1957371 -3.2659438,-10e-8 -1.6329717,-2.8283904 1.632972,-2.8283902 3.2659438,2e-7 1.6329717,2.8283903 z"
       transform="matrix(0.61238042,0,0,0.53033698,0.525678,3.683835)"
       id="path5" />
    <path
       d="m 7.3064413,7.1957371 -3.2659438,-10e-8 -1.6329717,-2.8283904 1.632972,-2.8283902 3.2659438,2e-7 1.6329717,2.8283903 z"
       transform="matrix(0.61238042,0,0,0.53033698,0.525678,7.683835)"
       id="path6" />
    <path
       d="m 7.3064413,7.1957371 -3.2659438,-10e-8 -1.6329717,-2.8283904 1.632972,-2.8283902 3.2659438,2e-7 1.6329717,2.8283903 z"
       transform="matrix(0.61238042,0,0,0.53033698,4.525678,9.683835)"
       id="path7" />
  </g>
</svg>
