<svg height="16" viewBox="0 0 16 16" width="16" xmlns="http://www.w3.org/2000/svg"><g fill="#fc7f7f"><path d="m7.3064413 7.1957371-3.2659438-.0000001-1.6329717-2.8283904 1.632972-2.8283902 3.2659438.0000002 1.6329717 2.8283903z" transform="matrix(.61238042 0 0 .53033698 4.525678 5.683835)"/><path d="m7.3064413 7.1957371-3.2659438-.0000001-1.6329717-2.8283904 1.632972-2.8283902 3.2659438.0000002 1.6329717 2.8283903z" transform="matrix(.61238042 0 0 .53033698 8.525678 3.683835)"/><path d="m7.3064413 7.1957371-3.2659438-.0000001-1.6329717-2.8283904 1.632972-2.8283902 3.2659438.0000002 1.6329717 2.8283903z" transform="matrix(.61238042 0 0 .53033698 8.525678 7.683835)"/><path d="m7.3064413 7.1957371-3.2659438-.0000001-1.6329717-2.8283904 1.632972-2.8283902 3.2659438.0000002 1.6329717 2.8283903z" transform="matrix(.61238042 0 0 .53033698 4.525678 1.683835)"/><path d="m7.3064413 7.1957371-3.2659438-.0000001-1.6329717-2.8283904 1.632972-2.8283902 3.2659438.0000002 1.6329717 2.8283903z" transform="matrix(.61238042 0 0 .53033698 .525678 3.683835)"/><path d="m7.3064413 7.1957371-3.2659438-.0000001-1.6329717-2.8283904 1.632972-2.8283902 3.2659438.0000002 1.6329717 2.8283903z" transform="matrix(.61238042 0 0 .53033698 .525678 7.683835)"/><path d="m7.3064413 7.1957371-3.2659438-.0000001-1.6329717-2.8283904 1.632972-2.8283902 3.2659438.0000002 1.6329717 2.8283903z" transform="matrix(.61238042 0 0 .53033698 4.525678 9.683835)"/></g></svg>